# File created by Blade
# Date/Time:  Tue Jan 27 18:05:41 2015
# Frame Rate: 120.000 fps
#------------------------------------------------------
:FULLY-SPECIFIED
:DEGREES
2046
root -1.469878 31.892117 -6.331105 7.207711 25.750578 5.328658
Spine -7.858851 0.167371 -5.186263
Head -9.262225 -27.190741 2.187894
LeftShoulder -9.010807 14.700323 7.465794
LeftArm 25.993381 42.340410 -70.366058
LeftForeArm -3.064541 -0.000000 15.108922
LeftHand -11.152474 -0.000000 -5.879708
LeftHandThumb1 -26.253704 0.000000 33.147579
RightShoulder -0.054666 33.052405 -44.679042
RightArm 63.086068 32.355456 89.485320
RightForeArm 25.555761 0.000000 107.713296
RightHand -6.196278 -0.000000 12.849496
RightHandThumb1 -24.326973 -0.000000 -32.862282
LeftUpLeg -3.471228 -11.687891 -0.658975
LeftLeg 0.265654 -0.000000 -0.000000
LeftFoot -12.206443 10.268190 -23.752254
LeftToeBase 8.713554 -0.000000 -0.000000
RightUpLeg 4.390103 -15.256696 -3.582455
RightLeg -3.676445 -0.000000 0.000000
RightFoot -18.237544 -21.053025 12.379826
RightToeBase 5.528003 -0.000000 -0.000000
2047
root -1.462960 31.892023 -6.331254 7.213856 25.778355 5.342132
Spine -7.919457 0.157751 -5.157325
Head -9.023316 -27.272911 1.882590
LeftShoulder -8.972907 14.678514 7.433526
LeftArm 25.968588 42.419660 -70.314869
LeftForeArm -3.138057 0.000000 15.092510
LeftHand -11.149151 -0.000000 -5.827173
LeftHandThumb1 -26.253704 0.000000 33.147579
RightShoulder -0.020643 33.122972 -44.493884
RightArm 63.839390 33.091794 91.762313
RightForeArm 26.218028 0.000000 107.981519
RightHand -6.143520 -0.000000 12.629937
RightHandThumb1 -24.326973 -0.000000 -32.862282
LeftUpLeg -3.463696 -11.690492 -0.674101
LeftLeg 0.255757 -0.000000 -0.000000
LeftFoot -12.194764 10.214343 -23.789554
LeftToeBase 8.738010 -0.000000 -0.000000
RightUpLeg 4.403654 -15.253741 -3.605087
RightLeg -3.681634 -0.000000 0.000000
RightFoot -18.246218 -21.080251 12.381138
RightToeBase 5.565763 -0.000000 -0.000000
2048
root -1.454371 31.892203 -6.330857 7.213921 25.816734 5.365104
Spine -7.963243 0.126672 -5.129088
Head -8.815864 -27.335074 1.612737
LeftShoulder -8.972127 14.669979 7.388610
LeftArm 25.967673 42.477973 -70.257756
LeftForeArm -3.160294 0.000000 15.066916
LeftHand -11.150400 -0.000000 -5.886944
LeftHandThumb1 -26.253704 0.000000 33.147579
RightShoulder 0.009555 33.235147 -44.304587
RightArm 64.601205 33.815480 94.050285
RightForeArm 26.928860 -0.000000 108.239436
RightHand -6.002702 -0.000000 12.593363
RightHandThumb1 -24.326973 -0.000000 -32.862282
LeftUpLeg -3.438251 -11.700837 -0.709345
LeftLeg 0.227042 -0.000000 -0.000000
LeftFoot -12.151912 10.190743 -23.763206
LeftToeBase 8.708637 -0.000000 -0.000000
RightUpLeg 4.432997 -15.275438 -3.640189
RightLeg -3.689214 -0.000000 0.000000
RightFoot -18.243612 -21.095913 12.386934
RightToeBase 5.536793 -0.000000 -0.000000
2049
root -1.446893 31.891781 -6.329565 7.200224 25.853677 5.375250
Spine -8.003567 0.119184 -5.097540
Head -8.584858 -27.394483 1.337617
LeftShoulder -8.953625 14.683332 7.361792
LeftArm 25.985717 42.513080 -70.207563
LeftForeArm -3.129778 -0.000000 15.032987
LeftHand -11.101676 -0.000000 -5.973123
LeftHandThumb1 -26.253704 0.000000 33.147579
RightShoulder 0.007622 33.267671 -44.151202
RightArm 65.446766 34.543230 96.404138
RightForeArm 27.749206 -0.000000 108.504740
RightHand -5.795448 -0.000000 12.406852
RightHandThumb1 -24.326973 -0.000000 -32.862282
LeftUpLeg -3.400753 -11.690451 -0.731347
LeftLeg 0.200593 -0.000000 -0.000000
LeftFoot -12.127663 10.152727 -23.745104
LeftToeBase 8.722481 -0.000000 -0.000000
RightUpLeg 4.474865 -15.278385 -3.663781
RightLeg -3.707629 -0.000000 0.000000
RightFoot -18.255457 -21.111010 12.427185
RightToeBase 5.531926 -0.000000 -0.000000
2050
root -1.438501 31.892167 -6.329537 7.190341 25.898307 5.392001
Spine -8.030351 0.099099 -5.067211
Head -8.453011 -27.434401 1.137932
LeftShoulder -8.943601 14.656784 7.336361
LeftArm 25.976448 42.606920 -70.165439
LeftForeArm -2.989054 -0.000000 14.989631
LeftHand -11.016400 -0.000000 -5.858237
LeftHandThumb1 -26.253704 0.000000 33.147579
RightShoulder -0.014687 33.390869 -44.026668
RightArm 66.217223 35.273888 98.709006
RightForeArm 28.657973 -0.000000 108.778680
RightHand -5.498796 -0.000000 12.209964
RightHandThumb1 -24.326973 -0.000000 -32.862282
LeftUpLeg -3.388912 -11.709735 -0.756753
LeftLeg 0.215232 -0.000000 -0.000000
LeftFoot -12.124951 10.114726 -23.784600
LeftToeBase 8.759405 -0.000000 -0.000000
RightUpLeg 4.511263 -15.293687 -3.694494
RightLeg -3.712342 -0.000000 0.000000
RightFoot -18.259166 -21.140004 12.426789
RightToeBase 5.546671 -0.000000 -0.000000
